<?xml version="1.0" encoding="UTF-8" standalone="no"?>
<!DOCTYPE svg PUBLIC "-//W3C//DTD SVG 1.1//EN" "http://www.w3.org/Graphics/SVG/1.1/DTD/svg11.dtd">
<svg width="100%" height="100%" viewBox="0 0 800 800" version="1.1" xmlns="http://www.w3.org/2000/svg" xmlns:xlink="http://www.w3.org/1999/xlink" xml:space="preserve" xmlns:serif="http://www.serif.com/" style="fill-rule:evenodd;clip-rule:evenodd;stroke-linecap:round;stroke-linejoin:round;stroke-miterlimit:1.5;">
    <g transform="matrix(1,0,0,0.893671,-157.869,92.2162)">
        <path d="M199.464,718.465C197.932,714.316 197.094,709.829 197.094,705.148L197.094,551.071C180.363,541.896 169.007,524.111 169.007,503.695L169.007,361.806C169.007,341.39 180.363,323.605 197.094,314.43L197.094,228.726C197.094,217.414 201.984,207.235 209.764,200.188L273.123,20.16L335.689,197.933C345.038,204.958 351.09,216.141 351.09,228.726L351.09,311.681C370.951,319.661 384.988,339.107 384.988,361.806L384.988,503.695C384.988,526.394 370.951,545.841 351.09,553.82L351.09,705.148C351.09,709.829 350.252,714.316 348.72,718.465L368.281,718.465C377.502,718.465 384.988,725.951 384.988,735.172L384.988,768.586C384.988,777.807 377.502,785.293 368.281,785.293L185.714,785.293C176.493,785.293 169.007,777.807 169.007,768.586L169.007,735.172C169.007,725.951 176.493,718.465 185.714,718.465L199.464,718.465Z" style="fill:rgb(239,217,0);stroke:rgb(125,104,47);stroke-width:19.68px;"/>
    </g>
    <g transform="matrix(1.43049,0,0,1.01519,0.851258,-6.11736)">
        <path d="M199.464,718.465C197.932,714.316 197.094,709.829 197.094,705.148L197.094,551.071C180.363,541.896 169.007,524.111 169.007,503.695L169.007,361.806C169.007,341.39 180.363,323.605 197.094,314.43L197.094,228.726C197.094,217.414 201.984,207.235 209.764,200.188L273.123,20.16L335.689,197.933C345.038,204.958 351.09,216.141 351.09,228.726L351.09,311.681C370.951,319.661 384.988,339.107 384.988,361.806L384.988,503.695C384.988,526.394 370.951,545.841 351.09,553.82L351.09,705.148C351.09,709.829 350.252,714.316 348.72,718.465L368.281,718.465C377.502,718.465 384.988,725.951 384.988,735.172L384.988,768.586C384.988,777.807 377.502,785.293 368.281,785.293L185.714,785.293C176.493,785.293 169.007,777.807 169.007,768.586L169.007,735.172C169.007,725.951 176.493,718.465 185.714,718.465L199.464,718.465Z" style="fill:rgb(239,217,0);stroke:rgb(125,104,47);stroke-width:15.05px;"/>
    </g>
    <g transform="matrix(1,0,0,0.906329,401.937,81.3073)">
        <path d="M199.464,718.465C197.932,714.316 197.094,709.829 197.094,705.148L197.094,551.071C180.363,541.896 169.007,524.111 169.007,503.695L169.007,361.806C169.007,341.39 180.363,323.605 197.094,314.43L197.094,228.726C197.094,217.414 201.984,207.235 209.764,200.188L273.123,20.16L335.689,197.933C345.038,204.958 351.09,216.141 351.09,228.726L351.09,311.681C370.951,319.661 384.988,339.107 384.988,361.806L384.988,503.695C384.988,526.394 370.951,545.841 351.09,553.82L351.09,705.148C351.09,709.829 350.252,714.316 348.72,718.465L368.281,718.465C377.502,718.465 384.988,725.951 384.988,735.172L384.988,768.586C384.988,777.807 377.502,785.293 368.281,785.293L185.714,785.293C176.493,785.293 169.007,777.807 169.007,768.586L169.007,735.172C169.007,725.951 176.493,718.465 185.714,718.465L199.464,718.465Z" style="fill:rgb(239,217,0);stroke:rgb(125,104,47);stroke-width:19.56px;"/>
    </g>
</svg>
