<?xml version="1.0" encoding="UTF-8" standalone="no"?>
<!DOCTYPE svg PUBLIC "-//W3C//DTD SVG 1.1//EN" "http://www.w3.org/Graphics/SVG/1.1/DTD/svg11.dtd">
<svg width="100%" height="100%" viewBox="0 0 800 800" version="1.1" xmlns="http://www.w3.org/2000/svg" xmlns:xlink="http://www.w3.org/1999/xlink" xml:space="preserve" xmlns:serif="http://www.serif.com/" style="fill-rule:evenodd;clip-rule:evenodd;stroke-linecap:round;stroke-linejoin:round;stroke-miterlimit:1.5;">
    <g transform="matrix(0.986146,0,0,1.00902,10.9181,10.9271)">
        <rect x="0" y="-0.993" width="788.089" height="770.223" style="fill:none;stroke:black;stroke-width:17px;"/>
    </g>
    <g transform="matrix(0.519745,0,0,0.467742,379.437,167.47)">
        <rect x="10.918" y="6.948" width="779.156" height="307.692" style="fill:none;stroke:black;stroke-width:34.29px;"/>
    </g>
    <g transform="matrix(0.519745,0,0,0.467742,6.23603,166.477)">
        <rect x="10.918" y="6.948" width="779.156" height="307.692" style="fill:none;stroke:black;stroke-width:34.29px;"/>
    </g>
    <g transform="matrix(0.519745,0,0,0.467742,178.941,16.6013)">
        <rect x="10.918" y="6.948" width="779.156" height="307.692" style="fill:none;stroke:black;stroke-width:34.29px;"/>
    </g>
    <g transform="matrix(0.519745,0,0,0.467742,11.1988,316.353)">
        <rect x="10.918" y="6.948" width="779.156" height="307.692" style="fill:none;stroke:black;stroke-width:34.29px;"/>
    </g>
    <g transform="matrix(-0.310828,0,0,0.467742,667.414,316.353)">
        <rect x="10.918" y="6.948" width="779.156" height="307.692" style="fill:none;stroke:black;stroke-width:42.7px;"/>
    </g>
    <g transform="matrix(-0.310828,0,0,0.467742,791.483,317.346)">
        <rect x="10.918" y="6.948" width="779.156" height="307.692" style="fill:none;stroke:black;stroke-width:42.7px;"/>
    </g>
    <g transform="matrix(-0.310828,0,0,0.467742,790.49,459.281)">
        <rect x="10.918" y="6.948" width="779.156" height="307.692" style="fill:none;stroke:black;stroke-width:42.7px;"/>
    </g>
    <g transform="matrix(-0.310828,0,0,0.467742,543.344,463.251)">
        <rect x="10.918" y="6.948" width="779.156" height="307.692" style="fill:none;stroke:black;stroke-width:42.7px;"/>
    </g>
    <g transform="matrix(-0.397452,0,0,0.467742,336.846,467.222)">
        <rect x="10.918" y="6.948" width="779.156" height="307.692" style="fill:none;stroke:black;stroke-width:39.07px;"/>
    </g>
    <g transform="matrix(-0.397452,0,0,0.545161,329.898,611.597)">
        <rect x="10.918" y="6.948" width="779.156" height="307.692" style="fill:none;stroke:black;stroke-width:35.54px;"/>
    </g>
    <g transform="matrix(-0.397452,0,0,0.545161,636.597,609.612)">
        <rect x="10.918" y="6.948" width="779.156" height="307.692" style="fill:none;stroke:black;stroke-width:35.54px;"/>
    </g>
</svg>
