<?xml version="1.0" encoding="UTF-8" standalone="no"?>
<!DOCTYPE svg PUBLIC "-//W3C//DTD SVG 1.1//EN" "http://www.w3.org/Graphics/SVG/1.1/DTD/svg11.dtd">
<svg width="100%" height="100%" viewBox="0 0 800 800" version="1.1" xmlns="http://www.w3.org/2000/svg" xmlns:xlink="http://www.w3.org/1999/xlink" xml:space="preserve" xmlns:serif="http://www.serif.com/" style="fill-rule:evenodd;clip-rule:evenodd;stroke-linecap:round;stroke-linejoin:round;stroke-miterlimit:1.5;">
    <rect x="391.067" y="250.124" width="23.821" height="86.352" style="fill:none;stroke:black;stroke-width:16.96px;"/>
    <g transform="matrix(-0.00624235,-0.999981,0.999981,-0.00624235,211.521,472.666)">
        <path d="M334.491,109.181C296.693,109.181 266.005,146.985 266.005,193.548C266.005,240.112 296.693,277.916 334.491,277.916C323.152,258.23 313.945,227.203 313.945,193.548C313.945,159.894 323.152,128.867 334.491,109.181Z" style="stroke:black;stroke-width:16.96px;"/>
    </g>
    <path d="M163.983,395.53C164.844,533.552 273.595,644.934 406.684,644.104C539.772,643.273 647.124,530.542 646.262,392.52C590.255,434.278 501.784,468.448 405.591,469.049C309.398,469.649 220.507,436.586 163.983,395.53ZM391.379,633.112L374.92,476.018L426.441,479.099L391.379,633.112ZM571.927,564.68L526.282,455.273L573.04,446.138L571.927,564.68ZM308.348,563.358L295.939,464.212L347.91,471.604L308.348,563.358ZM492.438,559.376L459.379,481.885L503.301,475.831L492.438,559.376ZM222.098,548.562L198.04,443.256L249.646,444.114L222.098,548.562Z" style="stroke:black;stroke-width:16.96px;"/>
    <path d="M400.496,12.903C613.867,12.903 787.097,186.8 787.097,400.993C787.097,615.185 613.867,789.082 400.496,789.082C187.126,789.082 13.896,615.185 13.896,400.993C13.896,186.8 187.126,12.903 400.496,12.903ZM777.117,16.554L707.528,159.707L632.531,83.115L777.117,16.554Z" style="fill:none;stroke:black;stroke-width:16.96px;"/>
    <g transform="matrix(0.987715,0,0,0.959779,-4.59344,14.481)">
        <path d="M407.94,207.444C455.052,207.444 493.3,247.027 493.3,295.782C493.3,344.536 455.052,384.119 407.94,384.119C360.829,384.119 322.581,344.536 322.581,295.782C322.581,247.027 360.829,207.444 407.94,207.444ZM20.283,-1.165L168.21,80.721L93.035,151.462L20.283,-1.165Z" style="fill:none;stroke:black;stroke-width:17.41px;"/>
    </g>
</svg>
