<?xml version="1.0" encoding="UTF-8" standalone="no"?>
<!DOCTYPE svg PUBLIC "-//W3C//DTD SVG 1.1//EN" "http://www.w3.org/Graphics/SVG/1.1/DTD/svg11.dtd">
<svg width="100%" height="100%" viewBox="0 0 800 800" version="1.1" xmlns="http://www.w3.org/2000/svg" xmlns:xlink="http://www.w3.org/1999/xlink" xml:space="preserve" xmlns:serif="http://www.serif.com/" style="fill-rule:evenodd;clip-rule:evenodd;stroke-linecap:round;stroke-linejoin:round;stroke-miterlimit:1.5;">
    <g transform="matrix(0.976716,0,0,0.979115,11.6787,12.611)">
        <rect x="2.421" y="0.969" width="790.315" height="788.378" style="fill:rgb(235,235,235);stroke:black;stroke-width:20.03px;"/>
    </g>
    <ellipse cx="253.753" cy="288.62" rx="115.738" ry="114.286" style="fill:rgb(235,235,235);stroke:black;stroke-width:19.59px;"/>
    <ellipse cx="341.889" cy="540.436" rx="30.508" ry="29.056" style="fill:rgb(235,235,235);stroke:black;stroke-width:19.59px;"/>
    <g transform="matrix(0.68254,0,0,0.766667,65.9211,163.874)">
        <ellipse cx="341.889" cy="540.436" rx="30.508" ry="29.056" style="fill:rgb(235,235,235);stroke:black;stroke-width:26.99px;"/>
    </g>
    <g transform="matrix(0.68254,0,0,0.766667,131.781,-35.6416)">
        <ellipse cx="341.889" cy="540.436" rx="30.508" ry="29.056" style="fill:rgb(235,235,235);stroke:black;stroke-width:26.99px;"/>
    </g>
    <g transform="matrix(0.68254,0,0,0.766667,165.679,-5.61743)">
        <ellipse cx="341.889" cy="540.436" rx="30.508" ry="29.056" style="fill:rgb(235,235,235);stroke:black;stroke-width:26.99px;"/>
    </g>
    <g transform="matrix(0.68254,0,0,0.766667,282.87,-8.523)">
        <ellipse cx="341.889" cy="540.436" rx="30.508" ry="29.056" style="fill:rgb(235,235,235);stroke:black;stroke-width:26.99px;"/>
    </g>
    <g transform="matrix(0.68254,0,0,0.766667,342.919,-254.528)">
        <ellipse cx="341.889" cy="540.436" rx="30.508" ry="29.056" style="fill:rgb(235,235,235);stroke:black;stroke-width:26.99px;"/>
    </g>
    <g transform="matrix(0.68254,0,0,0.766667,401.999,-371.719)">
        <ellipse cx="341.889" cy="540.436" rx="30.508" ry="29.056" style="fill:rgb(235,235,235);stroke:black;stroke-width:26.99px;"/>
    </g>
    <g transform="matrix(0.68254,0,0,0.766667,454.299,-373.656)">
        <ellipse cx="341.889" cy="540.436" rx="30.508" ry="29.056" style="fill:rgb(235,235,235);stroke:black;stroke-width:26.99px;"/>
    </g>
    <g transform="matrix(0.68254,0,0,0.766667,226.696,-378.499)">
        <ellipse cx="341.889" cy="540.436" rx="30.508" ry="29.056" style="fill:rgb(235,235,235);stroke:black;stroke-width:26.99px;"/>
    </g>
    <g transform="matrix(0.68254,0,0,0.766667,431.054,341.114)">
        <ellipse cx="341.889" cy="540.436" rx="30.508" ry="29.056" style="fill:rgb(235,235,235);stroke:black;stroke-width:26.99px;"/>
    </g>
    <g transform="matrix(0.68254,0,0,0.766667,79.4804,-259.37)">
        <ellipse cx="341.889" cy="540.436" rx="30.508" ry="29.056" style="fill:rgb(235,235,235);stroke:black;stroke-width:26.99px;"/>
    </g>
    <g transform="matrix(1,0,0,1,43.5835,42.615)">
        <ellipse cx="341.889" cy="540.436" rx="30.508" ry="29.056" style="fill:rgb(235,235,235);stroke:black;stroke-width:19.59px;"/>
    </g>
    <g transform="matrix(1,0,0,1,244.068,-16.4649)">
        <ellipse cx="341.889" cy="540.436" rx="30.508" ry="29.056" style="fill:rgb(235,235,235);stroke:black;stroke-width:19.59px;"/>
    </g>
    <g transform="matrix(1,0,0,1,222.76,36.8039)">
        <ellipse cx="341.889" cy="540.436" rx="30.508" ry="29.056" style="fill:rgb(235,235,235);stroke:black;stroke-width:19.59px;"/>
    </g>
    <g transform="matrix(1,0,0,1,65.8596,203.39)">
        <ellipse cx="341.889" cy="540.436" rx="30.508" ry="29.056" style="fill:rgb(235,235,235);stroke:black;stroke-width:19.59px;"/>
    </g>
    <g transform="matrix(1,0,0,1,135.593,203.39)">
        <ellipse cx="341.889" cy="540.436" rx="30.508" ry="29.056" style="fill:rgb(235,235,235);stroke:black;stroke-width:19.59px;"/>
    </g>
    <g transform="matrix(1,0,0,1,-132.688,212.107)">
        <ellipse cx="341.889" cy="540.436" rx="30.508" ry="29.056" style="fill:rgb(235,235,235);stroke:black;stroke-width:19.59px;"/>
    </g>
    <g transform="matrix(1,0,0,1,-146.247,130.751)">
        <ellipse cx="341.889" cy="540.436" rx="30.508" ry="29.056" style="fill:rgb(235,235,235);stroke:black;stroke-width:19.59px;"/>
    </g>
    <g transform="matrix(1,0,0,1,-291.525,84.2615)">
        <ellipse cx="341.889" cy="540.436" rx="30.508" ry="29.056" style="fill:rgb(235,235,235);stroke:black;stroke-width:19.59px;"/>
    </g>
    <g transform="matrix(1.77778,0,0,1.76667,-525.962,-646.78)">
        <ellipse cx="341.889" cy="540.436" rx="30.508" ry="29.056" style="fill:rgb(235,235,235);stroke:black;stroke-width:11.05px;"/>
    </g>
    <g transform="matrix(1,0,0,1,-210.169,-161.743)">
        <ellipse cx="341.889" cy="540.436" rx="30.508" ry="29.056" style="fill:rgb(235,235,235);stroke:black;stroke-width:19.59px;"/>
    </g>
    <g transform="matrix(1,0,0,1,-281.84,-139.467)">
        <ellipse cx="341.889" cy="540.436" rx="30.508" ry="29.056" style="fill:rgb(235,235,235);stroke:black;stroke-width:19.59px;"/>
    </g>
    <g transform="matrix(1,0,0,1,234.383,-270.218)">
        <ellipse cx="341.889" cy="540.436" rx="30.508" ry="29.056" style="fill:rgb(235,235,235);stroke:black;stroke-width:19.59px;"/>
    </g>
    <g transform="matrix(1,0,0,1,203.39,-333.172)">
        <ellipse cx="341.889" cy="540.436" rx="30.508" ry="29.056" style="fill:rgb(235,235,235);stroke:black;stroke-width:19.59px;"/>
    </g>
    <g transform="matrix(1,0,0,1,76.5133,-469.734)">
        <ellipse cx="341.889" cy="540.436" rx="30.508" ry="29.056" style="fill:rgb(235,235,235);stroke:black;stroke-width:19.59px;"/>
    </g>
    <g transform="matrix(1,0,0,1,-124.939,-493.947)">
        <ellipse cx="341.889" cy="540.436" rx="30.508" ry="29.056" style="fill:rgb(235,235,235);stroke:black;stroke-width:19.59px;"/>
    </g>
    <g transform="matrix(1,0,0,1,409.685,-492.978)">
        <ellipse cx="341.889" cy="540.436" rx="30.508" ry="29.056" style="fill:rgb(235,235,235);stroke:black;stroke-width:19.59px;"/>
    </g>
    <g transform="matrix(1,0,0,1,414.528,-232.446)">
        <ellipse cx="341.889" cy="540.436" rx="30.508" ry="29.056" style="fill:rgb(235,235,235);stroke:black;stroke-width:19.59px;"/>
    </g>
    <g transform="matrix(1,0,0,1,415.496,-165.617)">
        <ellipse cx="341.889" cy="540.436" rx="30.508" ry="29.056" style="fill:rgb(235,235,235);stroke:black;stroke-width:19.59px;"/>
    </g>
    <g transform="matrix(1,0,0,1,402.906,203.39)">
        <ellipse cx="341.889" cy="540.436" rx="30.508" ry="29.056" style="fill:rgb(235,235,235);stroke:black;stroke-width:19.59px;"/>
    </g>
    <g transform="matrix(1,0,0,1.7,410.654,-463.535)">
        <ellipse cx="341.889" cy="540.436" rx="30.508" ry="29.056" style="fill:rgb(235,235,235);stroke:black;stroke-width:14.05px;"/>
    </g>
    <g transform="matrix(1.68254,0,0,1.7,-327.784,-792.833)">
        <ellipse cx="341.889" cy="540.436" rx="30.508" ry="29.056" style="fill:rgb(235,235,235);stroke:black;stroke-width:11.58px;"/>
    </g>
    <g transform="matrix(1.68254,0,0,1.7,-246.428,-849.007)">
        <ellipse cx="341.889" cy="540.436" rx="30.508" ry="29.056" style="fill:rgb(235,235,235);stroke:black;stroke-width:11.58px;"/>
    </g>
    <g transform="matrix(1,0,0,1,-210.169,-161.743)">
        <ellipse cx="341.889" cy="540.436" rx="30.508" ry="29.056" style="fill:rgb(235,235,235);stroke:black;stroke-width:19.59px;"/>
    </g>
    <g transform="matrix(2.53968,0,0,2.1,-763.204,-425.956)">
        <ellipse cx="341.889" cy="540.436" rx="30.508" ry="29.056" style="fill:rgb(235,235,235);stroke:black;stroke-width:8.41px;"/>
    </g>
    <g transform="matrix(2.53968,0,0,2.1,-331.243,-1049.69)">
        <ellipse cx="341.889" cy="540.436" rx="30.508" ry="29.056" style="fill:rgb(235,235,235);stroke:black;stroke-width:8.41px;"/>
    </g>
    <g transform="matrix(1.7619,0,0,1.71667,-266.298,-477.869)">
        <ellipse cx="341.889" cy="540.436" rx="30.508" ry="29.056" style="fill:rgb(235,235,235);stroke:black;stroke-width:11.26px;"/>
    </g>
    <g transform="matrix(0.920635,0,0,0.796954,43.007,81.0216)">
        <ellipse cx="450.363" cy="303.632" rx="91.525" ry="95.4" style="fill:rgb(235,235,235);stroke:black;stroke-width:22.75px;"/>
    </g>
    <g transform="matrix(0.920635,0,0,0.796954,2.32907,-62.3198)">
        <ellipse cx="450.363" cy="303.632" rx="91.525" ry="95.4" style="fill:rgb(235,235,235);stroke:black;stroke-width:22.75px;"/>
    </g>
    <g transform="matrix(0.920635,0,0,0.796954,49.7867,246.639)">
        <ellipse cx="450.363" cy="303.632" rx="91.525" ry="95.4" style="fill:rgb(235,235,235);stroke:black;stroke-width:22.75px;"/>
    </g>
    <g transform="matrix(0.920635,0,0,0.796954,-110.02,437.438)">
        <ellipse cx="450.363" cy="303.632" rx="91.525" ry="95.4" style="fill:rgb(235,235,235);stroke:black;stroke-width:22.75px;"/>
    </g>
    <g transform="matrix(0.920635,0,0,0.796954,65.2831,402.571)">
        <ellipse cx="450.363" cy="303.632" rx="91.525" ry="95.4" style="fill:rgb(235,235,235);stroke:black;stroke-width:22.75px;"/>
    </g>
    <g transform="matrix(0.47619,0,0,0.507614,373.919,578.075)">
        <ellipse cx="450.363" cy="303.632" rx="91.525" ry="95.4" style="fill:rgb(235,235,235);stroke:black;stroke-width:39.81px;"/>
    </g>
    <g transform="matrix(1.03175,0,0,1.2132,226.865,246.162)">
        <ellipse cx="450.363" cy="303.632" rx="91.525" ry="95.4" style="fill:rgb(235,235,235);stroke:black;stroke-width:17.4px;"/>
    </g>
    <g transform="matrix(1.03175,0,0,1.2132,226.865,-191.61)">
        <ellipse cx="450.363" cy="303.632" rx="91.525" ry="95.4" style="fill:rgb(235,235,235);stroke:black;stroke-width:17.4px;"/>
    </g>
    <g transform="matrix(0.978836,0,0,1.2132,-331.389,-229.383)">
        <ellipse cx="450.363" cy="303.632" rx="91.525" ry="95.4" style="fill:rgb(235,235,235);stroke:black;stroke-width:17.77px;"/>
    </g>
    <g transform="matrix(1.08995,0,0,1.06091,144.963,76.4199)">
        <ellipse cx="450.363" cy="303.632" rx="91.525" ry="95.4" style="fill:rgb(235,235,235);stroke:black;stroke-width:18.22px;"/>
    </g>
    <g transform="matrix(1.39683,0,0,1.18274,-471.694,165.337)">
        <ellipse cx="450.363" cy="303.632" rx="91.525" ry="95.4" style="fill:rgb(235,235,235);stroke:black;stroke-width:15.14px;"/>
    </g>
</svg>
